0
SECTION
2
HEADER
9
$INSUNITS
70
4
0
ENDSEC
0
SECTION
2
ENTITIES
0
LINE
8
CONTORNO
10
-30.000
20
-30.000
30
0
11
30.000
21
-30.000
31
0
0
LINE
8
CONTORNO
10
30.000
20
-30.000
30
0
11
30.000
21
30.000
31
0
0
LINE
8
CONTORNO
10
30.000
20
30.000
30
0
11
-30.000
21
30.000
31
0
0
LINE
8
CONTORNO
10
-30.000
20
30.000
30
0
11
-30.000
21
-30.000
31
0
0
CIRCLE
8
FUROS
10
-8.000
20
-9.500
30
0
40
1.600
0
CIRCLE
8
FUROS
10
8.000
20
-9.500
30
0
40
1.600
0
CIRCLE
8
FUROS
10
8.000
20
9.500
30
0
40
1.600
0
CIRCLE
8
FUROS
10
-8.000
20
9.500
30
0
40
1.600
0
CIRCLE
8
FUROS
10
14.142
20
14.142
30
0
40
2.000
0
CIRCLE
8
FUROS
10
-14.142
20
14.142
30
0
40
2.000
0
CIRCLE
8
FUROS
10
-14.142
20
-14.142
30
0
40
2.000
0
CIRCLE
8
FUROS
10
14.142
20
-14.142
30
0
40
2.000
0
CIRCLE
8
FUROS
10
0.000
20
0.000
30
0
40
6.000
0
ENDSEC
0
EOF
